<svg aria-hidden="true" style="position: absolute; overflow: hidden;" version="1.1" xmlns="http://www.w3.org/2000/svg" xmlns:xlink="http://www.w3.org/1999/xlink">
<defs>
<symbol id="icon-antenna" viewBox="0 0 64 32">
<path fill="#212121" style="fill: var(--color1, #212121)" d="M14.361 10.312l-3.94-3.969 0.437-2.154c0.105 0.042 0.226 0.067 0.354 0.068h0.003c0.004 0 0.008 0 0.012 0 0.556 0 1.008-0.451 1.008-1.008s-0.451-1.008-1.008-1.008c-0.556 0-1.008 0.451-1.008 1.008 0 0.121 0.021 0.237 0.060 0.345l-0.002-0.007-2.315 0.283-3.776-3.795c-0.045-0.046-0.107-0.074-0.176-0.075h-0c-0.065 0-0.128 0.026-0.174 0.073l-0.705 0.702c-0.045 0.045-0.073 0.107-0.073 0.176s0.028 0.131 0.073 0.176v0l0.38 0.385c-0.533 0.962-0.847 2.11-0.847 3.332 0 1.916 0.773 3.651 2.023 4.912l-0-0c0.020 0.019 0.043 0.034 0.068 0.045-0.015 0.076-0.024 0.165-0.024 0.255v2.888h-2.987c-0.687 0.001-1.244 0.557-1.245 1.244v0.498c0 0.138 0.112 0.249 0.249 0.249h11.449c0.137 0 0.249-0.111 0.249-0.249v-0.498c-0.001-0.687-0.557-1.244-1.244-1.244h-2.987v-1.28c0.468 0.098 0.945 0.148 1.423 0.149 1.204-0.001 2.336-0.309 3.321-0.85l-0.036 0.018 0.382 0.384c0.046 0.047 0.109 0.074 0.176 0.075 0.065-0 0.128-0.026 0.174-0.073l0.706-0.702c0.045-0.045 0.073-0.107 0.073-0.176s-0.028-0.131-0.073-0.176v0zM10.864 2.909c0.090-0.090 0.214-0.145 0.351-0.145 0.275 0 0.498 0.223 0.498 0.498s-0.223 0.498-0.498 0.498c-0 0-0 0-0 0h-0.002c-0.274-0.002-0.495-0.224-0.495-0.498 0-0.138 0.056-0.263 0.147-0.353l0-0h-0.001zM10.278 4.544l-0.279 1.375-0.548-0.552 0.828-0.823zM9.995 4.123l-0.896 0.891-0.693-0.697 1.589-0.194zM11.202 13.44c0.412 0 0.747 0.334 0.747 0.747v0 0.249h-10.951v-0.249c0-0.412 0.334-0.747 0.747-0.747v0h9.458zM7.718 12.444v0.498h-2.489v-0.498h2.489zM5.229 11.947v-1.892c0-0.604 0.558-1.095 1.244-1.095s1.245 0.491 1.245 1.095v1.892h-2.489zM8.215 11.155v-1.1c0-0.878-0.781-1.593-1.742-1.593-0.008-0-0.018-0-0.027-0-0.631 0-1.185 0.33-1.5 0.826l-0.004 0.007c-1.101-1.158-1.779-2.728-1.779-4.457 0-1.080 0.264-2.098 0.732-2.993l-0.017 0.036 8.681 8.731c-0.851 0.442-1.857 0.701-2.924 0.701-0.503 0-0.993-0.058-1.463-0.167l0.043 0.008zM13.484 10.836l-9.827-9.884 0.352-0.351 3.703 3.724c0.002 0 0.003 0.003 0.004 0.004l6.12 6.156-0.353 0.351z"></path>
<path fill="#2196f3" style="fill: var(--color2, #2196f3)" d="M6.475 9.458h-0.002c-0 0-0.001 0-0.001 0-0.412 0-0.747 0.334-0.747 0.747s0.334 0.746 0.745 0.747h0.002c0 0 0.001 0 0.001 0 0.412 0 0.747-0.334 0.747-0.747s-0.334-0.746-0.746-0.747h-0zM6.649 10.381c-0.045 0.045-0.107 0.073-0.176 0.073-0.138 0-0.249-0.111-0.249-0.249s0.111-0.249 0.248-0.249h0c0.137 0.001 0.248 0.112 0.248 0.249 0 0.069-0.028 0.131-0.073 0.176v0h0.002z"></path>
</symbol>
<symbol id="icon-astronaut" viewBox="0 0 64 32">
<path fill="#2196f3" style="fill: var(--color2, #2196f3)" d="M14.921 2.111c-0.030-0.089-0.106-0.155-0.199-0.169l-0.001-0-0.892-0.13-0.399-0.808c-0.083-0.17-0.363-0.17-0.446 0l-0.399 0.808-0.892 0.13c-0.121 0.018-0.213 0.121-0.213 0.246 0 0.070 0.029 0.133 0.075 0.178l0.646 0.629-0.152 0.888c-0.016 0.093 0.022 0.188 0.099 0.244 0.077 0.056 0.179 0.063 0.262 0.019l0.797-0.419 0.797 0.419c0.034 0.018 0.073 0.028 0.116 0.028 0.138 0 0.249-0.112 0.249-0.249 0-0.015-0.001-0.029-0.004-0.043l0 0.002-0.152-0.888 0.645-0.629c0.046-0.045 0.075-0.109 0.075-0.178 0-0.027-0.004-0.054-0.013-0.079l0.001 0.002zM13.772 2.731c-0.059 0.057-0.085 0.14-0.071 0.22l0.089 0.52-0.467-0.245c-0.034-0.018-0.074-0.029-0.116-0.029s-0.082 0.011-0.117 0.029l0.001-0.001-0.467 0.245 0.089-0.52c0.002-0.013 0.004-0.027 0.004-0.042 0-0.070-0.029-0.133-0.075-0.178l-0-0-0.378-0.368 0.522-0.076c0.081-0.012 0.151-0.063 0.188-0.136l0.233-0.473 0.233 0.473c0.036 0.074 0.106 0.125 0.188 0.136l0.522 0.076-0.378 0.368zM12.196 9.577h-0.498v0.498h0.498v-0.498zM12.196 10.573h-0.498v0.498h0.498v-0.498zM12.693 10.075h-0.498v0.498h0.498v-0.498zM11.698 10.075h-0.498v0.498h0.498v-0.498zM10.453 12.315h-0.498v0.498h0.498v-0.498zM10.453 13.31h-0.498v0.498h0.498v-0.498zM10.951 12.813h-0.498v0.498h0.498v-0.498zM9.956 12.813h-0.498v0.498h0.498v-0.498zM7.467 11.319h-0.498v0.498h0.498v-0.498zM7.467 12.315h-0.498v0.498h0.498v-0.498zM7.964 11.817h-0.498v0.498h0.498v-0.498zM6.969 11.817h-0.498v0.498h0.498v-0.498zM2.738 2.857h-0.498v0.498h0.498v-0.498zM2.738 3.853h-0.498v0.498h0.498v-0.498zM3.235 3.355h-0.498v0.498h0.498v-0.498zM2.24 3.355h-0.498v0.498h0.498v-0.498z"></path>
<path fill="#212121" style="fill: var(--color1, #212121)" d="M11.533 6.608c-0.131-0.176-0.326-0.297-0.55-0.328l-0.004-0c-0.036-0.005-0.077-0.008-0.118-0.008-0.192 0-0.368 0.065-0.508 0.174l0.002-0.001-0.585 0.448-0.886 0.661-0.634-0.253c1.13-0.507 1.92-1.637 1.92-2.949 0-1.784-1.457-3.236-3.248-3.236s-3.249 1.452-3.249 3.236c0 0.647 0.193 1.248 0.523 1.754l-1.292-0.011c-0.004 0-0.007 0.002-0.011 0.002-0.026 0.001-0.051 0.007-0.074 0.015l0.002-0.001c-0.006 0.002-0.012 0.003-0.018 0.006-0.003 0.001-0.006 0.002-0.009 0.003l-1.509 0.745c-0 0-0.001 0-0.001 0l-0.883 0.425c-0.011 0.005-0.021 0.011-0.030 0.017l0.001-0c-0.225 0.151-0.371 0.404-0.371 0.692 0 0.139 0.034 0.269 0.094 0.384l-0.002-0.005c0.102 0.198 0.276 0.346 0.487 0.413l0.006 0.002c0.075 0.025 0.161 0.039 0.251 0.039 0.144 0 0.279-0.037 0.397-0.101l-0.004 0.002 0.648-0.344 1.056-0.546 0.633-0.004-2.54 2.527c0 0-0 0-0.001 0.001l-0.625 0.622c-0.141 0.14-0.229 0.333-0.229 0.548 0 0.001 0 0.002 0 0.002v-0c0.001 0.429 0.349 0.777 0.778 0.777 0 0 0.001 0 0.001 0h-0c0.2 0 0.399-0.076 0.551-0.227l0.613-0.611 0.812-0.607 0.42 0.419-1.447 1.441c-0.141 0.14-0.229 0.333-0.229 0.548 0 0.001 0 0.001 0 0.002v-0c0 0.208 0.081 0.403 0.229 0.55 0.141 0.14 0.335 0.226 0.549 0.226 0.001 0 0.001 0 0.002 0h-0c0.199 0 0.399-0.076 0.551-0.226l2.095-2.087c0.003-0.003 0.007-0.004 0.010-0.007l2.411-2.64 1.62 0.23c0.012 0.002 0.023 0.003 0.035 0.003 0.030 0 0.059-0.007 0.087-0.018 0.008-0.003 0.015-0.007 0.023-0.011 0.009-0.004 0.018-0.007 0.027-0.013l1.5-0.995c0.006-0.004 0.009-0.010 0.014-0.014s0.013-0.007 0.019-0.012l0.593-0.556c0.162-0.152 0.263-0.367 0.263-0.607 0-0.187-0.062-0.359-0.166-0.498l0.002 0.002zM0.994 8.293c-0.046 0.025-0.1 0.040-0.158 0.040-0.036 0-0.072-0.006-0.104-0.017l0.002 0.001c-0.137-0.043-0.235-0.17-0.235-0.319 0-0.11 0.053-0.207 0.135-0.268l0.001-0.001 0.613-0.295 0.148 0.431 0.062 0.181-0.463 0.246zM2.626 7.44l-0.723 0.373-0.119-0.348-0.086-0.25 0.946-0.467-0.019 0.692zM9.673 4.35c0 0.429-0.102 0.833-0.279 1.194l-1.951-0.886c-0.020-0.268-0.16-0.5-0.365-0.646l-0.003-0.002 0.683-2.268c1.109 0.353 1.915 1.388 1.915 2.608zM4.171 4.35c0-1.51 1.234-2.738 2.751-2.738 0.118 0 0.233 0.010 0.348 0.025l-0.668 2.218c-0.009 0-0.017-0.003-0.027-0.003-0 0-0 0-0 0-0.482 0-0.872 0.39-0.873 0.871v0c0.001 0.481 0.392 0.871 0.874 0.871 0 0 0 0 0 0v0c0.324 0 0.604-0.179 0.755-0.441l1.803 0.819c-0.502 0.675-1.304 1.115-2.211 1.115-1.517 0-2.751-1.228-2.751-2.738zM6.951 4.724c0 0.206-0.169 0.373-0.376 0.373-0 0-0 0-0.001 0-0.207 0-0.374-0.167-0.375-0.373v-0c0-0.206 0.169-0.373 0.376-0.373s0.376 0.167 0.376 0.373zM1.15 11.735c-0.051 0.051-0.122 0.082-0.2 0.082s-0.148-0.031-0.199-0.082l0 0c-0.051-0.050-0.082-0.12-0.082-0.197s0.031-0.147 0.082-0.197l0-0 0.449-0.447 0.398 0.396-0.447 0.445zM2.65 13.477c-0.051 0.051-0.122 0.082-0.2 0.082s-0.148-0.031-0.199-0.082l0 0c-0.051-0.050-0.082-0.12-0.082-0.197s0.031-0.147 0.082-0.197l0-0 0.449-0.448 0.397 0.396-0.448 0.446zM4.275 11.858l-0.001 0.001-0.823 0.821-0.398-0.396 0.824-0.82c0.019-0.019 0.030-0.041 0.042-0.063 0.003-0.006 0.009-0.012 0.012-0.019 0.008-0.019 0.009-0.040 0.012-0.060 0.002-0.012 0.006-0.022 0.006-0.034 0-0.016-0.006-0.033-0.009-0.049-0.003-0.015-0.003-0.030-0.009-0.045-0.011-0.025-0.026-0.046-0.043-0.064l0 0c-0.005-0.006-0.006-0.012-0.012-0.018h-0s0-0.001-0-0.001l-0.75-0.747c-0.008-0.008-0.018-0.011-0.027-0.018-0.012-0.010-0.025-0.019-0.039-0.026l-0.001-0.001c-0.012-0.006-0.027-0.011-0.042-0.015l-0.002-0c-0.014-0.004-0.030-0.008-0.047-0.009l-0.001-0c-0.003-0-0.007-0-0.011-0-0.012 0-0.024 0.001-0.035 0.003l0.001-0c-0.017 0.002-0.032 0.004-0.048 0.010s-0.030 0.013-0.044 0.021c-0.009 0.005-0.020 0.007-0.028 0.013l-0.828 0.618-0.42-0.419 1.12-1.114 2.035 2.002-0.433 0.429zM7.457 8.584c-0.007-0.001-0.014 0.002-0.021 0.001-0.004-0-0.008-0-0.012-0-0.015 0-0.029 0.001-0.043 0.004l0.001-0c-0.032 0.005-0.061 0.016-0.087 0.033l0.001-0.001c-0.014 0.009-0.026 0.017-0.039 0.029-0.006 0.005-0.013 0.008-0.019 0.014l-2.192 2.401-2.020-1.986 1.322-1.315c0.045-0.045 0.073-0.107 0.073-0.176 0-0.138-0.112-0.249-0.249-0.249-0 0-0 0-0.001 0h0l-1.036 0.006 0.013-0.75 1.449 0.012c0.59 0.605 1.413 0.98 2.323 0.98 0 0 0.001 0 0.002 0h-0c0.204 0 0.403-0.021 0.597-0.057 0.019 0.015 0.037 0.030 0.060 0.039l1.125 0.448 0.071 0.354 0.083 0.413-1.401-0.199zM9.343 8.667l-0.146-0.727 0.675-0.504 0.442 0.586-0.971 0.645zM11.094 7.346l-0.391 0.366-0.435-0.577 0.388-0.297c0.073-0.056 0.164-0.079 0.253-0.067 0.090 0.013 0.17 0.060 0.224 0.133 0.041 0.055 0.066 0.124 0.066 0.199 0 0.096-0.041 0.182-0.105 0.243l-0 0z"></path>
<path fill="#212121" style="fill: var(--color1, #212121)" d="M6.348 8.654l-1-0.996c-0.045-0.045-0.107-0.073-0.176-0.073s-0.131 0.028-0.176 0.073l-1 0.996c-0.045 0.045-0.073 0.108-0.073 0.176s0.028 0.131 0.073 0.176v0l1 0.996c0.045 0.045 0.107 0.073 0.176 0.073s0.131-0.028 0.176-0.073v0l1-0.996c0.045-0.045 0.073-0.107 0.073-0.176s-0.028-0.131-0.073-0.176v0zM5.172 9.475l-0.647-0.644 0.647-0.644 0.647 0.644-0.647 0.644zM8.010 2.366l-0.12 0.483c0.033 0.008 0.811 0.211 0.811 1.003h0.498c0-0.941-0.777-1.384-1.188-1.486zM9.198 4.35h-0.498v0.498h0.498v-0.498z"></path>
</symbol>
<symbol id="icon-clock" viewBox="0 0 64 32">
<path fill="#212121" style="fill: var(--color1, #212121)" d="M14.605 7.14c-0.001-3.944-3.199-7.141-7.144-7.14s-7.141 3.199-7.14 7.144c0.001 3.168 2.064 5.853 4.919 6.788l0.051 0.014c0.028 0.009 0.058 0.013 0.087 0.013 0.056 0 0.111-0.015 0.16-0.044 0.063-0.037 0.11-0.097 0.132-0.166l1.804-5.717c0.492-0.002 0.89-0.401 0.89-0.893 0-0.493-0.4-0.893-0.893-0.893-0.141 0-0.275 0.033-0.394 0.091l0.005-0.002-2.383-2.383c-0.053-0.052-0.126-0.083-0.207-0.083-0.164 0-0.298 0.133-0.298 0.298 0 0.080 0.032 0.153 0.083 0.207l-0-0 2.381 2.384c-0.056 0.112-0.089 0.245-0.089 0.385 0 0.281 0.132 0.531 0.338 0.691l0.002 0.001-1.718 5.447c-3.396-1.251-5.135-5.019-3.884-8.415s5.018-5.135 8.415-3.884c3.396 1.251 5.135 5.018 3.884 8.415-0.628 1.671-1.868 2.99-3.441 3.704l-0.041 0.017-0.186-0.875c-0.029-0.136-0.148-0.236-0.291-0.236-0.076 0-0.146 0.029-0.199 0.076l0-0-1.79 1.599c-0.061 0.055-0.1 0.134-0.1 0.222 0 0.132 0.086 0.244 0.206 0.283l0.002 0.001 2.286 0.73c0.027 0.009 0.059 0.014 0.091 0.014 0.164 0 0.297-0.133 0.297-0.297 0-0.022-0.002-0.044-0.007-0.064l0 0.002-0.182-0.858c2.58-1.108 4.353-3.627 4.353-6.56 0-0.005 0-0.011-0-0.016v0.001zM7.463 6.843c0.164 0 0.298 0.133 0.298 0.298s-0.133 0.298-0.298 0.298v0c-0.164 0-0.298-0.133-0.298-0.298s0.133-0.298 0.298-0.298v0zM8.443 13.78l1.019-0.909 0.281 1.325-1.301-0.416z"></path>
<path fill="#2196f3" style="fill: var(--color2, #2196f3)" d="M7.165 1.486v0.595c0 0.164 0.133 0.298 0.298 0.298s0.298-0.133 0.298-0.298v0-0.595c0-0.164-0.133-0.298-0.298-0.298s-0.298 0.133-0.298 0.298v0zM1.809 6.843c-0.164 0-0.298 0.133-0.298 0.298s0.133 0.298 0.298 0.298h0.595c0.164 0 0.298-0.133 0.298-0.298s-0.133-0.298-0.298-0.298h-0.595zM13.117 7.438c0.164 0 0.298-0.133 0.298-0.298s-0.133-0.298-0.298-0.298h-0.595c-0.164 0-0.298 0.133-0.298 0.298s0.133 0.298 0.298 0.298h0.595z"></path>
</symbol>
<symbol id="icon-diagram" viewBox="0 0 64 32">
<path fill="#2196f3" style="fill: var(--color2, #2196f3)" d="M6.965 6.983h0.497v2.239h-0.497v-2.239zM8.955 7.979h0.498v1.244h-0.498v-1.244zM4.975 8.725h0.497v0.498h-0.497v-0.498zM3.483 8.476h0.498v0.746h-0.498v-0.746z"></path>
<path fill="#212121" style="fill: var(--color1, #212121)" d="M0.746 13.202h11.94c0 0 0 0 0 0 0.412 0 0.746-0.334 0.746-0.746v0-0.995c0-0.412-0.334-0.746-0.746-0.746v0h-0.249v-6.204l1.413-1.338c0.097 0.049 0.211 0.077 0.332 0.077 0.415 0 0.751-0.336 0.751-0.75s-0.336-0.75-0.751-0.75c-0.415 0-0.751 0.336-0.751 0.75 0 0.115 0.026 0.224 0.072 0.322l-0.002-0.005-1.065 1.009v-0.574c0-0.412-0.334-0.746-0.746-0.746v0h-9.95c-0.412 0-0.746 0.334-0.746 0.746v0 7.463h-0.249c-0.412 0-0.746 0.334-0.746 0.746v0 0.995c0 0.412 0.334 0.746 0.746 0.746v0zM14.179 2.257c0.137 0 0.249 0.111 0.249 0.249s-0.111 0.249-0.249 0.249v0c-0.137 0-0.249-0.111-0.249-0.249s0.111-0.249 0.249-0.249v0zM1.492 3.252c0-0.137 0.111-0.249 0.249-0.249h9.95c0.137 0 0.249 0.111 0.249 0.249v1.045l-0.498 0.473v-1.020c0-0.138-0.112-0.249-0.249-0.249h-8.955c-0.137 0-0.249 0.111-0.249 0.249v6.219c0 0.137 0.112 0.249 0.249 0.249h8.955c0.138 0 0.249-0.111 0.249-0.249v-4.515l0.498-0.471v5.732h-10.448v-7.462zM3.731 6.486c-0.001 0-0.001 0-0.002 0-0.412 0-0.746 0.334-0.746 0.746s0.334 0.746 0.746 0.746c0.202 0 0.385-0.080 0.519-0.21l-0 0 0.865 0.434c0.1 0.050 0.222 0.027 0.297-0.057l1.838-2.068 1.807 1.354c0.097 0.073 0.232 0.065 0.32-0.018l1.57-1.488v3.795h-8.458v-5.722h8.458v1.242l-1.76 1.667-1.822-1.366c-0.041-0.031-0.093-0.050-0.149-0.050-0.074 0-0.14 0.032-0.186 0.083l-0 0-1.863 2.097-0.697-0.348c0.005-0.030 0.008-0.060 0.009-0.090 0-0.412-0.334-0.746-0.746-0.746v0zM3.98 7.232c0 0.137-0.111 0.249-0.249 0.249s-0.249-0.111-0.249-0.249v0c0-0.137 0.111-0.249 0.249-0.249s0.249 0.111 0.249 0.249v0zM5.473 11.212h2.487v0.249c0 0.137-0.111 0.249-0.249 0.249h-1.99c-0.137 0-0.249-0.111-0.249-0.249v0-0.249zM0.498 11.461c0-0.137 0.111-0.249 0.249-0.249h4.229v0.249c0 0.412 0.334 0.746 0.746 0.746v0h1.99c0.412 0 0.746-0.334 0.746-0.746v0-0.249h4.229c0.137 0 0.249 0.111 0.249 0.249v0.995c0 0.137-0.111 0.249-0.249 0.249h-11.94c-0 0-0 0-0 0-0.137 0-0.249-0.111-0.249-0.249 0 0 0 0 0 0v0-0.995z"></path>
</symbol>
</defs>
</svg>
